<?xml version="1.0"?>
<svg xmlns="http://www.w3.org/2000/svg" viewBox="0 0 50 50">
    <path style="text-indent:0;text-align:start;line-height:normal;text-transform:none;block-progression:tb;-inkscape-font-specification:Sans" d="M 16.90625 2 C 15.595139 2 14.038771 2.2090572 12.75 2.53125 L 12 2.71875 L 12 3.5 L 12 9.6875 L 12 10.8125 L 13.125 10.6875 C 14.057321 10.583909 14.539583 10.5 14.90625 10.5 C 16.561012 10.5 17.34753 10.703708 18.03125 11.3125 C 18.708716 11.915723 19.376053 13.167234 20.25 15.34375 C 20.2581 15.36384 20.27315 15.35474 20.28125 15.375 L 21.03125 17.375 L 8.09375 46.59375 L 7.46875 48 L 9 48 L 17.40625 48 L 18.0625 48 L 18.3125 47.375 L 25.40625 30.125 L 29.5625 41.34375 C 30.398434 43.694815 31.438243 45.438619 33 46.5625 C 34.561757 47.686381 36.536525 48.09375 39 48.09375 C 40.588889 48.09375 42.27435 47.9398 43.40625 47.5625 L 44.09375 47.3125 L 44.09375 46.59375 L 44.09375 40.40625 L 44.09375 39.125 L 42.84375 39.4375 C 42.557884 39.50897 41.866667 39.59375 41.5 39.59375 C 40.397222 39.59375 39.798773 39.444829 39.375 39.125 C 38.951227 38.805171 38.577874 38.186776 38.15625 36.96875 L 38.125 36.9375 L 29.625 14.34375 C 27.86066 9.6556461 26.448521 6.6186892 24.5 4.65625 C 22.551479 2.6938108 20.087398 2 16.90625 2 z M 16.90625 4 C 19.825102 4 21.511021 4.4999392 23.0625 6.0625 C 24.613979 7.6250608 26.01434 10.450604 27.75 15.0625 L 36.25 37.625 C 36.2534 37.6349 36.2466 37.64637 36.25 37.65625 C 36.725984 39.023343 37.292743 40.043461 38.1875 40.71875 C 39.088727 41.398921 40.202778 41.59375 41.5 41.59375 C 41.703636 41.59375 41.885416 41.54974 42.09375 41.53125 L 42.09375 45.75 C 41.274597 45.926865 40.15394 46.09375 39 46.09375 C 36.763475 46.09375 35.269493 45.738619 34.15625 44.9375 C 33.043007 44.136381 32.201566 42.805185 31.4375 40.65625 L 26.625 27.65625 L 26.40625 27 L 25.6875 27 L 25.1875 27 L 24.53125 27 L 24.28125 27.625 L 16.71875 46 L 10.53125 46 L 23 17.8125 L 23.1875 17.4375 L 23.03125 17.0625 L 22.125 14.65625 L 22.125 14.625 C 21.21077 12.339426 20.48503 10.828708 19.34375 9.8125 C 18.20247 8.7962917 16.751488 8.5 14.90625 8.5 C 14.623814 8.5 14.275913 8.5610234 14 8.59375 L 14 4.375 C 14.972329 4.1855917 16.040633 4 16.90625 4 z" overflow="visible" font-family="Sans"/>
</svg>
